HIERARCHY
ROOT Hips
{
  OFFSET 0 0 0
  CHANNELS 6 Xposition Yposition Zposition Zrotation Yrotation Xrotation
  JOINT LeftThigh
  {
    OFFSET 8.409438 0 -5.917753
    CHANNELS 3 Zrotation Yrotation Xrotation
    JOINT LeftLeg
    {
      OFFSET 0 0 -42.358652
      CHANNELS 3 Zrotation Yrotation Xrotation
      JOINT LeftFoot
      {
        OFFSET 0 0 -39.357303
        CHANNELS 3 Zrotation Yrotation Xrotation
      }
    }
  }
  JOINT RightThigh
  {
    OFFSET -8.409438 0 -5.917753
    CHANNELS 3 Zrotation Yrotation Xrotation
    JOINT RightLeg
    {
      OFFSET 0 0 -42.358652
      CHANNELS 3 Zrotation Yrotation Xrotation
      JOINT RightFoot
      {
        OFFSET 0 0 -39.357303
        CHANNELS 3 Zrotation Yrotation Xrotation
      }
    }
  }
  JOINT SpineLow
  {
    OFFSET 0 0 4.719101
    CHANNELS 3 Zrotation Yrotation Xrotation
    JOINT SpineMid
    {
      OFFSET 0 0 12.899191
      CHANNELS 3 Zrotation Yrotation Xrotation
      JOINT Chest
      {
        OFFSET 0 0 12.899191
        CHANNELS 3 Zrotation Yrotation Xrotation
        JOINT LeftShoulder
        {
          OFFSET 7.550562 1.41573 9.438202
          CHANNELS 3 Zrotation Yrotation Xrotation
          JOINT LeftArm
          {
            OFFSET 9.155056 0 4.247191
            CHANNELS 3 Zrotation Yrotation Xrotation
            JOINT LeftForearm
            {
              OFFSET 0 0 25.771955
              CHANNELS 3 Zrotation Yrotation Xrotation
              JOINT LeftHand
              {
                OFFSET 0 0 25.197169
                CHANNELS 3 Zrotation Yrotation Xrotation
              }
            }
          }
        }
        JOINT RightShoulder
        {
          OFFSET -7.550562 1.41573 9.438202
          CHANNELS 3 Zrotation Yrotation Xrotation
          JOINT RightArm
          {
            OFFSET -9.155056 0 4.247191
            CHANNELS 3 Zrotation Yrotation Xrotation
            JOINT RightForearm
            {
              OFFSET 0 0 -25.771955
              CHANNELS 3 Zrotation Yrotation Xrotation
              JOINT RightHand
              {
                OFFSET 0 0 -25.197169
                CHANNELS 3 Zrotation Yrotation Xrotation
              }
            }
          }
        }
        JOINT Neck
        {
          OFFSET 0 0 15.101124
          CHANNELS 3 Zrotation Yrotation Xrotation
          JOINT Head
          {
            OFFSET 0 0 11.325843
            CHANNELS 3 Zrotation Yrotation Xrotation
            End Site
            {
              OFFSET 0 0 14.157303
            }
          }
        }
      }
    }
  }
}
MOTION
Frames: 16
Frame Time: 0.0
0.0  89.887642  0.0  100.035186  -34.596971  179.8617  -17.750078  -43.937891  -3.33969  4.879065  24.33904  33.563239  0.412119  4.413417  6.277194  1.716218  40.866607  -22.885976  10.386188  13.218076  21.40143  10.361042  0.509161  -0.363299  1.040671  5.791266  0.555627  3.033593  15.800921  1.803813  3.033593  15.800921  1.803813  -5.874972  6.398002  7.096532  -156.499283  61.809188  -151.679385  -51.44092  -2.06468  82.48488  68.935634  41.368633  -26.985969  1.162134  -9.868346  10.186  143.770123  24.51432  45.293895  -28.93336  17.962663  -89.44626  88.391599  22.734179  -21.387789  32.565467  12.853671  4.630853  24.223197  9.919527  2.771278  
0.0  89.887642  0.0  99.296764  -35.104544  -179.297361  -10.728083  -45.347525  -8.071955  4.183818  27.164656  35.683599  1.112136  4.11933  6.711324  -0.104025  39.356943  -23.343162  12.471628  13.57669  21.52098  10.174645  0.659028  -0.468219  1.131185  5.672531  0.526553  3.273073  15.475239  1.738057  3.273073  15.475239  1.738057  -4.930379  6.934049  7.191922  -152.411328  61.449114  -147.490918  -49.092532  -1.800124  84.370582  69.971751  41.822571  -26.554391  1.083307  -9.840686  10.503475  142.517348  24.714965  44.905269  -27.713403  17.18405  -89.915838  87.844854  23.532913  -20.771553  32.17088  12.857213  4.987193  23.921103  9.937229  3.046351  
0.0  89.887642  0.0  98.405942  -35.527148  -178.175063  -2.852218  -46.7114  -13.811737  5.317477  29.713805  39.276185  1.070728  3.674977  7.058619  -1.687485  38.118071  -24.26807  14.093417  13.76756  22.119422  9.82177  0.870483  -0.473971  1.076888  5.568239  0.486033  3.108094  15.193826  1.606319  3.108094  15.193825  1.606319  -3.2291  7.538036  7.029441  -149.060308  61.657618  -143.159641  -47.345839  -2.16599  85.517101  70.873181  42.385802  -26.190739  1.664459  -9.727582  10.572943  141.520173  24.874997  44.418086  -26.488366  16.483569  -90.106246  87.1844  24.32394  -20.394794  32.116695  13.042593  5.204801  23.871513  10.087594  3.1998  
0.0  89.887642  0.0  97.176943  -36.083399  -176.136931  5.264583  -48.006775  -21.265248  7.812255  32.031558  44.270496  1.123528  3.281739  7.482252  -3.671917  37.482703  -26.352419  14.35302  13.522535  22.947019  9.899823  1.194112  -0.544965  0.877349  5.464699  0.354125  2.51917  14.921397  1.187787  2.51917  14.921397  1.187787  -1.507052  7.902233  6.504276  -146.52604  61.283458  -140.093644  -45.705469  -2.91787  86.985302  71.692203  42.969044  -25.822458  2.612676  -9.624867  10.462858  140.904257  25.003305  43.939204  -25.772503  15.974243  -90.115862  86.642122  24.832421  -20.207833  32.262717  13.317499  5.225362  23.97309  10.296999  3.196076  
0.0  89.887642  0.0  95.85222  -36.248361  -174.7307  11.324474  -48.363018  -27.575862  11.734553  33.511721  50.593094  0.627572  2.801449  7.818804  -4.742337  37.770666  -27.279368  14.21723  13.214813  23.490993  9.910757  1.282639  -0.49723  0.80609  5.453347  0.395544  2.330541  14.890297  1.285742  2.330541  14.890297  1.285742  -0.831452  7.8357  5.996094  -144.804652  60.269629  -138.123089  -44.444216  -3.740829  88.679832  72.470506  43.481096  -25.555655  2.963674  -9.662878  10.213529  140.418863  25.161147  43.547794  -25.724653  15.776962  -90.155887  86.429256  24.894079  -19.87629  31.971885  13.537312  5.018912  23.754743  10.448379  3.035021  
0.0  89.887642  0.0  93.566112  -37.140514  -171.914341  15.471247  -48.381093  -33.743159  16.184798  33.777412  56.916181  -0.450944  2.254903  7.893888  -6.030049  37.293443  -28.193475  13.509712  12.982076  23.840688  9.83896  1.400611  -0.466176  0.66914  5.332995  0.350504  1.936558  14.565644  1.124564  1.936558  14.565644  1.124564  -0.638048  7.656197  5.706691  -143.935219  59.098636  -136.878109  -43.765121  -4.152509  90.319703  73.141455  43.878919  -25.629508  2.970463  -9.729237  10.042951  139.75835  25.370251  43.21486  -26.222766  16.001694  -90.34571  86.462917  24.668728  -19.254879  31.401239  13.665482  4.731586  23.331795  10.524067  2.825186  
0.0  89.887642  0.0  92.188355  -37.526263  -170.71459  17.392738  -47.147859  -36.434411  19.027271  33.782814  61.711899  -1.672661  2.054757  7.72046  -5.008711  37.516133  -26.850541  12.563684  12.840643  23.961314  9.639377  1.600402  -0.447871  0.719856  5.292236  0.428135  2.093633  14.450761  1.349876  2.093633  14.45076  1.349876  -0.268085  7.54077  5.621795  -144.123506  58.080038  -136.18322  -43.578773  -3.878919  91.723735  73.624711  44.146492  -26.273714  3.039137  -9.740432  10.11852  138.728485  25.709152  42.880611  -26.934715  16.455747  -90.662023  86.58447  24.377141  -18.346956  30.755254  13.683895  4.490909  22.854453  10.519427  2.658419  
0.0  89.887642  0.0  90.5863  -37.970074  -169.400436  19.363273  -45.973863  -38.987526  20.418945  35.179417  65.795288  -2.661538  2.141208  7.327733  -3.937478  37.418155  -25.10964  12.216974  12.943576  24.00369  9.071586  1.614107  -0.421045  0.766207  5.217156  0.493295  2.234288  14.242267  1.537881  2.234288  14.242268  1.53788  0.527777  7.591886  5.78163  -144.591428  57.330704  -135.309165  -43.414093  -2.576495  92.743131  73.806996  44.225666  -27.551419  3.186974  -9.623533  10.388723  137.372742  26.175303  42.445887  -27.567636  16.819747  -90.997172  86.578035  24.170712  -17.384452  30.06316  13.615589  4.38155  22.341889  10.456196  2.595792  
0.0  89.887642  0.0  88.745663  -38.374766  -168.006967  21.137489  -45.135664  -41.350129  21.453458  38.092902  69.635617  -3.024261  2.403003  6.77655  -3.522862  36.965167  -23.633805  11.757255  13.122432  23.950251  8.707769  1.716325  -0.349765  0.813212  5.119054  0.557274  2.375095  13.970607  1.721257  2.375096  13.970607  1.721257  1.157936  7.831117  6.02552  -145.292343  56.846356  -134.649235  -43.159908  -0.553619  93.447278  73.660585  44.028731  -29.271614  3.383109  -9.437192  10.768568  135.899617  26.520383  41.968159  -28.116235  16.869769  -91.263261  86.414293  24.058819  -16.519306  29.277024  13.445717  4.447025  21.757576  10.324466  2.67134  
0.0  89.887642  0.0  86.769656  -38.694794  -166.496713  21.829845  -45.086929  -43.431843  23.934527  42.04372  73.795957  -2.146662  2.754202  6.372132  -4.265506  36.317955  -22.989513  11.855579  13.192771  23.9959  8.616439  1.897884  -0.271578  0.874395  5.018496  0.61052  2.552116  13.691963  1.877211  2.552116  13.691963  1.877211  1.677347  8.197994  6.422709  -146.279242  56.499859  -134.036979  -42.671832  2.003635  94.204972  73.46636  43.985315  -30.93937  3.486518  -9.313605  11.129443  134.339162  26.647774  41.386391  -28.573904  16.633091  -91.35917  86.022414  24.037939  -15.956691  28.334182  13.169412  4.634939  21.055905  10.116899  2.84691  
0.0  89.887642  0.0  84.583726  -38.956352  -164.710362  21.305888  -45.926807  -45.056909  28.374533  46.348247  78.092906  -0.025543  3.184185  6.41732  -5.849157  35.6696  -23.037725  12.183334  13.110114  24.142059  8.467459  1.906236  -0.232775  0.956536  4.914959  0.63413  2.780245  13.405497  1.954635  2.780245  13.405498  1.954635  1.992387  8.414034  6.837833  -148.203563  56.308373  -134.111145  -42.07326  4.171577  94.349129  73.12772  43.698343  -31.781934  3.40438  -9.227302  11.546808  132.681565  26.618124  40.641539  -28.735553  16.129906  -91.261822  85.591477  23.964294  -15.451416  27.250542  12.820582  5.041329  20.245981  9.862801  3.191628  
0.0  89.887642  0.0  82.200662  -39.237599  -162.600531  20.840764  -47.341249  -46.986567  34.710812  50.14923  83.335909  2.250913  3.500716  6.689666  -7.79957  34.932771  -23.39067  12.866042  12.976854  24.335753  8.189634  1.731201  -0.200675  1.034931  4.812692  0.636863  2.9934  13.123428  1.972811  2.9934  13.123429  1.972811  2.438462  8.398691  6.88557  -153.003669  56.154132  -136.144962  -41.702126  5.11171  94.661719  72.964061  43.795428  -31.831314  3.267062  -9.233135  11.858996  130.898092  26.489738  39.760091  -28.793429  15.519778  -91.027289  85.143821  23.841873  -14.99143  26.101766  12.464562  5.463909  19.387183  9.602048  3.548787  
0.0  89.887642  0.0  79.545785  -39.541946  -160.126438  20.825428  -48.409342  -49.17595  41.496847  52.411064  89.122797  4.017445  3.63898  6.91949  -9.547617  34.157803  -23.529245  12.829464  12.768532  24.327512  8.106118  1.699944  -0.152332  1.076259  4.698236  0.619926  3.099424  12.810184  1.927877  3.099424  12.810183  1.927877  2.818162  8.304733  6.674572  -158.568307  55.535629  -138.849177  -40.885394  4.917438  94.933155  72.865148  44.099637  -31.314221  3.218187  -9.193739  12.124267  129.118881  26.385062  38.891781  -28.860597  14.90751  -90.822847  84.57937  23.615724  -14.574695  24.977493  12.135037  5.838158  18.547016  9.358082  3.866643  
0.0  89.887642  0.0  76.491689  -39.844488  -157.316287  20.844986  -49.250407  -51.380291  48.13291  52.924572  95.049252  5.151964  3.644757  6.991796  -10.942591  33.225179  -23.170876  11.998035  12.60925  24.068443  8.181529  1.788011  -0.051199  1.073649  4.540606  0.588163  3.07951  12.38109  1.830801  3.07951  12.38109  1.830801  3.160172  8.38855  6.398004  -164.63582  55.273864  -141.844142  -40.326017  4.275663  94.784003  73.051022  44.666479  -30.555233  3.217094  -8.900116  12.474751  127.432783  26.384638  38.073663  -29.236654  14.409479  -90.661386  84.086535  23.31196  -14.138054  23.88597  11.850746  6.222872  17.73009  9.147671  4.188441  
0.0  89.887642  0.0  73.341657  -39.998875  -154.584002  20.660936  -49.886272  -53.13753  54.080568  52.003016  100.582772  5.550616  3.521368  6.833109  -11.746499  32.41306  -22.225056  11.229164  12.524166  23.817128  8.016697  1.795218  0.004343  1.105088  4.395638  0.598292  3.162373  11.983548  1.856595  3.162373  11.983547  1.856595  3.284742  8.234043  5.938023  -171.5019  54.884521  -145.438741  -39.894423  3.348579  94.446801  73.42102  45.364415  -29.954729  2.975414  -8.549703  12.791298  125.691664  26.57876  37.249895  -29.695447  13.958377  -90.679019  83.805491  22.899735  -13.536187  22.598894  11.524538  6.495835  16.769912  8.898021  4.430862  
0.0  89.887642  0.0  69.919996  -40.00314  -151.630494  21.260218  -49.991868  -55.262322  58.529735  50.568367  105.534931  5.521577  3.314839  6.488496  -12.544636  31.496805  -21.14553  10.234731  12.466192  23.514503  7.817253  1.831621  0.041586  1.160202  4.254114  0.620276  3.312657  11.594056  1.919141  3.312657  11.594056  1.919141  3.199869  7.971032  5.608248  -178.408061  54.282188  -148.804688  -39.407593  2.260308  94.05661  73.677003  46.163764  -29.905989  2.4302  -8.259216  13.114798  124.001952  26.589886  36.437732  -30.581367  13.935438  -90.758345  83.587101  22.546488  -12.942115  21.051057  11.119389  6.68104  15.617739  8.581895  4.613858  
